<svg width="38" height="38" viewBox="0 0 38 38" fill="none" xmlns="http://www.w3.org/2000/svg">
<rect x="0.713209" y="1.10951" width="36.2303" height="36.2303" rx="18.1151" stroke="white" stroke-width="0.928981"/>
<g clip-path="url(#clip0_64_776)">
<path d="M12.906 13.3024C12.906 13.3024 13.3124 12.8959 14.1252 12.0831C14.9381 11.2702 16.5058 10.8638 18.8282 10.8638C21.1507 10.8638 23.1247 11.6766 24.7505 13.3024C26.3762 14.9281 27.189 16.9022 27.189 19.2246C27.189 21.5471 26.3762 23.5212 24.7505 25.1469C23.1247 26.7726 21.1507 27.5854 18.8282 27.5854C16.5058 27.5854 14.5317 26.7726 12.906 25.1469C11.2802 23.5212 10.4674 21.5471 10.4674 19.2246C10.4674 16.9022 11.2802 14.9281 12.906 13.3024ZM13.9075 24.1453C13.9075 24.1453 14.2486 24.4864 14.9308 25.1686C15.6131 25.8509 16.9122 26.192 18.8282 26.192C20.7442 26.192 22.3845 25.5098 23.7489 24.1453C25.1133 22.7809 25.7956 21.1406 25.7956 19.2246C25.7956 17.3086 25.1133 15.6684 23.7489 14.3039C22.3845 12.9395 20.7442 12.2573 18.8282 12.2573C16.9122 12.2573 15.272 12.9395 13.9075 14.3039C12.5431 15.6684 11.8608 17.3086 11.8608 19.2246C11.8608 21.1406 12.5431 22.7809 13.9075 24.1453ZM21.0055 18.8327C20.8023 18.3102 20.6136 17.8602 20.4394 17.4828C21.6006 16.9602 22.5151 16.3941 23.1828 15.7845C23.9086 16.7135 24.315 17.686 24.4021 18.7021C23.1247 18.7021 21.9925 18.7456 21.0055 18.8327ZM22.2683 14.87C21.6006 15.4216 20.7878 15.8861 19.8298 16.2635C19.2782 15.2764 18.7266 14.42 18.175 13.6943C18.3202 13.6652 18.5379 13.6507 18.8282 13.6507C20.0765 13.6507 21.2232 14.0572 22.2683 14.87ZM16.6509 14.0862C17.2025 14.7249 17.7976 15.6248 18.4363 16.786C16.8977 17.2505 15.2574 17.4973 13.5156 17.5263C14.0091 15.9006 15.0542 14.7539 16.6509 14.0862ZM24.3585 19.9214C24.1844 21.4019 23.5167 22.6067 22.3554 23.5357C22.3554 23.4776 22.3046 23.2163 22.203 22.7518C22.1014 22.2874 22.0216 21.9245 21.9635 21.6632C21.9345 21.46 21.7603 20.9084 21.441 20.0084C22.4861 19.9214 23.4586 19.8923 24.3585 19.9214ZM18.9153 19.2246C17.0573 20.0084 15.5477 21.1406 14.3865 22.6212C13.6317 21.5761 13.2543 20.4439 13.2543 19.2246V18.9198C15.4607 18.8617 17.4057 18.5569 19.0895 18.0053C19.2056 18.2376 19.3508 18.5859 19.5249 19.0504C19.2637 19.1085 19.0605 19.1666 18.9153 19.2246ZM20.0039 20.1826C20.2652 20.9084 20.483 21.6196 20.6571 22.3164C20.7442 22.6648 20.8894 23.3325 21.0926 24.3195C20.3668 24.6388 19.612 24.7985 18.8282 24.7985C17.4928 24.7985 16.3171 24.3776 15.301 23.5357C16.259 22.2293 17.5654 21.1987 19.2201 20.4439C19.3362 20.3858 19.5975 20.2988 20.0039 20.1826Z" fill="white"/>
</g>
<defs>
<clipPath id="clip0_64_776">
<rect width="16.7217" height="22.2956" fill="white" transform="matrix(1 0 0 -1 10.4674 30.3726)"/>
</clipPath>
</defs>
</svg>
