<svg width="38" height="38" viewBox="0 0 38 38" fill="none" xmlns="http://www.w3.org/2000/svg">
<rect x="0.845869" y="1.10951" width="36.2303" height="36.2303" rx="18.1151" stroke="white" stroke-width="0.928981"/>
<g clip-path="url(#clip0_64_772)">
<path d="M29.2439 12.8669C28.7213 13.6798 28.0246 14.4055 27.1537 15.0442V15.5668C27.1537 18.615 26.0578 21.3801 23.8659 23.8623C21.6741 26.3444 18.7638 27.5854 15.135 27.5854C12.8125 27.5854 10.6642 26.9468 8.69016 25.6694C9.15465 25.7275 9.4885 25.7565 9.69171 25.7565C11.6368 25.7565 13.3786 25.1469 14.9172 23.9276C14.0173 23.8986 13.2044 23.6155 12.4787 23.0784C11.7529 22.5414 11.2594 21.8519 10.9981 21.01C11.3465 21.0681 11.6077 21.0971 11.7819 21.0971C12.0722 21.0971 12.4496 21.039 12.9141 20.9229C11.9561 20.7197 11.1505 20.2334 10.4973 19.4641C9.84412 18.6948 9.51753 17.8021 9.51753 16.786V16.7425C10.1562 17.0909 10.7949 17.265 11.4336 17.265C10.1852 16.4522 9.56108 15.2764 9.56108 13.7378C9.56108 13.0121 9.74977 12.3153 10.1272 11.6476C12.3625 14.4055 15.2511 15.8716 18.7928 16.0458C18.7348 15.8425 18.7057 15.5232 18.7057 15.0877C18.7057 13.8975 19.1122 12.8959 19.925 12.0831C20.7379 11.2702 21.7394 10.8638 22.9297 10.8638C24.12 10.8638 25.136 11.3138 25.9779 12.2137C26.8488 12.0686 27.7488 11.7202 28.6778 11.1686C28.3875 12.1847 27.7633 12.9685 26.8053 13.5201C27.7052 13.433 28.5181 13.2153 29.2439 12.8669Z" fill="white"/>
</g>
<defs>
<clipPath id="clip0_64_772">
<rect width="20.5584" height="22.2956" fill="white" transform="matrix(1 0 0 -1 8.68692 30.3726)"/>
</clipPath>
</defs>
</svg>
