<svg width="38" height="38" viewBox="0 0 38 38" fill="none" xmlns="http://www.w3.org/2000/svg">
<rect x="0.580519" y="1.10951" width="36.2303" height="36.2303" rx="18.1151" stroke="white" stroke-width="0.928981"/>
<g clip-path="url(#clip0_64_780)">
<path d="M18.6959 22.7083C18.6959 22.7083 18.1153 22.7083 16.954 22.7083C15.7928 22.7083 15.2122 21.5471 15.2122 19.2246C15.2122 16.9022 16.3734 15.7409 18.6959 15.7409C21.0183 15.7409 22.1796 16.9022 22.1796 19.2246C22.1796 21.5471 21.0183 22.7083 18.6959 22.7083ZM15.2557 15.7845C14.6461 16.3941 14.2397 17.0763 14.0365 17.8311H10.3351V12.954C10.3351 12.3444 10.5383 11.8508 10.9447 11.4734C11.4092 11.067 11.9172 10.8638 12.4688 10.8638H25.0101C25.5616 10.8638 26.0406 11.067 26.4471 11.4734C26.8535 11.8799 27.0567 12.3734 27.0567 12.954V17.8311H23.3989C23.1956 17.0763 22.7892 16.3941 22.1796 15.7845C21.2216 14.8265 20.0603 14.3475 18.6959 14.3475C17.3605 14.3475 16.2138 14.8265 15.2557 15.7845ZM25.6632 14.5217V12.8234C25.6632 12.6782 25.6052 12.5476 25.4891 12.4314C25.3729 12.3153 25.2423 12.2573 25.0971 12.2573H23.4424C23.2972 12.2573 23.1666 12.3153 23.0505 12.4314C22.9344 12.5476 22.8763 12.6782 22.8763 12.8234V14.5217C22.8763 14.6668 22.9344 14.7974 23.0505 14.9136C23.1376 15.0007 23.2682 15.0442 23.4424 15.0442H25.0971C25.2713 15.0442 25.402 15.0007 25.4891 14.9136C25.6052 14.7974 25.6632 14.6668 25.6632 14.5217ZM22.1796 22.6648C23.1085 21.7358 23.573 20.5891 23.573 19.2246H27.0567V25.4952C27.0567 26.0178 26.8535 26.5113 26.4471 26.9758C26.0697 27.3822 25.5907 27.5854 25.0101 27.5854H12.4688C11.8882 27.5854 11.3947 27.3822 10.9882 26.9758C10.5528 26.5403 10.3351 26.0468 10.3351 25.4952V19.2246H13.8623C13.8623 20.5891 14.3268 21.7358 15.2557 22.6648C16.2138 23.6228 17.3605 24.1018 18.6959 24.1018C20.0603 24.1018 21.2216 23.6228 22.1796 22.6648Z" fill="white"/>
</g>
<defs>
<clipPath id="clip0_64_780">
<rect width="16.7217" height="22.2956" fill="white" transform="matrix(1 0 0 -1 10.335 30.3726)"/>
</clipPath>
</defs>
</svg>
