<svg width="38" height="38" viewBox="0 0 38 38" fill="none" xmlns="http://www.w3.org/2000/svg">
<rect x="1.11029" y="1.10951" width="36.2303" height="36.2303" rx="18.1151" stroke="white" stroke-width="0.928981"/>
<g clip-path="url(#clip0_64_764)">
<path d="M12.3241 12.3227C12.3241 12.3227 12.7995 11.8473 13.7502 10.8965C14.701 9.94577 16.5263 9.4704 19.2261 9.4704C21.926 9.4704 24.2267 10.4212 26.1282 12.3227C28.0297 14.2242 28.9804 16.5248 28.9804 19.2247C28.9804 21.9246 28.0297 24.2252 26.1282 26.1267C24.2267 28.0282 21.926 28.979 19.2261 28.979C18.2391 28.979 17.3101 28.8484 16.4392 28.5871C16.9617 27.6581 17.2956 26.9614 17.4407 26.4969L18.1375 23.797C18.5729 24.6099 19.3568 25.0163 20.489 25.0163C22.0566 25.0163 23.3267 24.3922 24.2992 23.1438C25.2718 21.8955 25.758 20.2988 25.758 18.3538C25.758 16.8442 25.1774 15.5305 24.0162 14.4129C22.855 13.2952 21.3744 12.7363 19.5745 12.7363C17.4262 12.7363 15.7279 13.3678 14.4796 14.6306C13.2313 15.8934 12.6071 17.2942 12.6071 18.8328C12.6071 20.7778 13.2748 22.0262 14.6102 22.5777C14.8715 22.6939 15.0457 22.6068 15.1328 22.3165C15.1328 22.2584 15.1546 22.1278 15.1981 21.9246C15.2417 21.7213 15.278 21.5907 15.307 21.5326C15.365 21.3585 15.3215 21.1843 15.1763 21.0101C14.7409 20.4875 14.5232 19.8489 14.5232 19.0941C14.5232 17.8167 14.9659 16.7208 15.8513 15.8063C16.7367 14.8919 17.8907 14.4346 19.3132 14.4346C20.5906 14.4346 21.5921 14.7758 22.3179 15.458C23.0437 16.1402 23.4065 17.0329 23.4065 18.1361C23.4065 19.5876 23.1162 20.8141 22.5356 21.8157C21.955 22.8172 21.2147 23.318 20.3148 23.318C19.7922 23.318 19.3713 23.1366 19.0519 22.7737C18.7326 22.4108 18.631 21.9681 18.7471 21.4455C18.8052 21.1552 18.914 20.7633 19.0737 20.2698C19.2334 19.7763 19.364 19.3408 19.4656 18.9634C19.5672 18.586 19.618 18.2667 19.618 18.0054C19.618 17.599 19.5019 17.2506 19.2697 16.9603C19.0374 16.67 18.7181 16.5248 18.3117 16.5248C17.7891 16.5248 17.3464 16.7644 16.9835 17.2434C16.6206 17.7224 16.4392 18.3247 16.4392 19.0505C16.4392 19.3118 16.4682 19.5731 16.5263 19.8343C16.5843 20.0956 16.6424 20.2988 16.7005 20.444L16.744 20.6182C16.0182 23.6374 15.5973 25.4082 15.4812 25.9308C15.307 26.6275 15.2489 27.3678 15.307 28.1516C13.5651 27.3678 12.1572 26.1775 11.083 24.5809C10.0089 22.9842 9.47182 21.1988 9.47182 19.2247C9.47182 16.5248 10.4226 14.2242 12.3241 12.3227Z" fill="white"/>
</g>
<defs>
<clipPath id="clip0_64_764">
<rect width="19.5086" height="22.2956" fill="white" transform="matrix(1 0 0 -1 9.47154 30.3726)"/>
</clipPath>
</defs>
</svg>
